<?xml version="1.0" encoding="UTF-8"?>
<svg version="1.1" viewBox="0 0 2048 2048" width="1280" height="1280" xmlns="http://www.w3.org/2000/svg">
<path transform="translate(1e3 511)" d="m0 0h37l38 3 30 4 26 5 31 8 36 12 27 11 25 12 21 11 20 12 12 8 13 9 19 14 13 11 11 9 8 7v2l4 2 24 24 7 8 12 14 12 15 13 18 12 18 10 16 10 18 8 15 14 31 11 29 9 29 7 28 6 33 4 34 1 15v57l-2 25-4 30-8 39-10 35-10 28-11 26-11 23-12 22-8 13-7 11-11 16-8 11-11 14-11 13-18 20-21 21-8 7-10 9-10 8-18 14-27 18-20 12-18 10-24 12-31 13-36 12-30 8-24 5-33 5-34 3h-53l-36-3-26-4-29-6-30-8-35-12-24-10-16-7-19-10-25-14-27-18-18-13-17-14-8-7-10-9-15-14-9-9v-2h-2l-7-8-12-13-8-10-14-18-14-20-13-21-14-25-15-31-11-27-9-24-7-26-8-38-5-35-3-39v-33l2-32 4-31 5-28 10-42 7-20 14-34 8-18 12-24 14-24 11-17 12-17 9-12 11-14 9-10 1-2h2l2-4 15-16 12-12 8-7 10-9 11-9 14-11 15-11 18-12 18-11 21-12 29-14 32-13 37-12 28-7 31-6 33-4zm-68 183-26 8-21 8-25 12-16 9-17 11-18 13-15 13-8 7-23 23-9 11v1h179v-116zm-209 287-42 1-2 9-1 37 1 30 1 7 2 1h251v-84l-38-1zm31 257 6 8 7 7 7 8 14 14 11 9 13 11 20 14 20 12 23 12 29 12 25 8h4v-115z"/>
<path transform="translate(536,1420)" d="m0 0h11l14 2 15 5 11 6 12 9 9 9 7 10 7 14 4 13 2 15-1 17-4 15-8 16-10 14-65 65-12 9-16 8-13 4-14 2-18-1-15-4-10-4-14-9-8-7-9-11-8-13-5-13-3-14v-19l4-18 5-12 6-10 8-10 69-69 14-9 11-5 14-4z"/>
<path transform="translate(1015,170)" d="m0 0h18l16 3 12 5 12 7 11 9 9 10 8 13 5 12 3 13 1 8v96l-2 15-5 15-6 11-6 8-9 10-10 8-16 8-17 5-5 1h-20l-14-3-13-5-11-6-13-11-8-9-8-13-5-12-4-17v-105l4-18 8-17 10-13 10-10 18-11 15-5z"/>
<path transform="translate(1698,938)" d="m0 0h103l16 3 12 5 12 7 11 9 8 9 9 14 6 15 3 16v15l-3 16-5 13-6 11-10 13-9 8-13 8-12 5-10 3-15 2h-94l-17-3-14-5-12-7-11-9-10-11-9-15-5-14-2-10-1-15 2-15 6-18 8-14 12-13 9-8 14-8 15-5z"/>
<path transform="translate(247,938)" d="m0 0h103l16 3 12 5 14 8 12 11 7 8 7 11 6 15 3 13v23l-4 16-5 12-8 13-9 10-11 9-15 8-16 5-15 2h-93l-14-2-13-4-17-9-11-10-5-5-9-12-7-14-4-14-1-6v-19l3-15 5-13 7-12 8-10 9-9 18-11 15-5z"/>
<path transform="translate(1011,1621)" d="m0 0h25l13 3 13 5 16 10 13 13 9 14 5 11 4 15 1 9v96l-3 18-5 13-6 11-10 13-9 8-13 8-15 6-13 3-7 1h-10l-14-2-13-4-17-9-10-9-5-5-9-11-8-16-4-14-1-8v-103l3-15 5-13 8-13 9-10 7-7 14-9 11-5z"/>
<path transform="translate(1557,395)" d="m0 0h20l15 3 13 5 14 9 12 11 9 12 8 16 3 9 2 13v14l-2 14-4 12-7 14-10 13-64 64-12 9-15 8-17 5-6 1h-18l-15-3-13-5-12-7-11-9-10-11-9-16-5-13-2-10-1-13 2-16 5-16 7-13 9-12 69-69 15-10 12-5 11-3z"/>
<path transform="translate(1494,1421)" d="m0 0h25l16 4 17 8 14 11 64 64 10 13 8 16 4 15 1 8v11l-2 16-4 12-7 14-7 9-7 8-12 9-16 8-13 4-16 2-16-1-16-4-16-8-10-8-13-12-53-53-11-14-8-16-4-13-2-11v-11l3-17 6-16 7-12 12-14 13-10 14-7 14-4z"/>
<path transform="translate(475,395)" d="m0 0h13l17 3 13 5 12 7 11 9 64 64 11 15 7 16 4 16v22l-5 19-8 16-8 11-10 10-16 10-16 6-13 3h-20l-14-3-15-6-11-7-13-11-58-58v-2h-2l-11-15-7-14-4-15-1-8v-12l2-14 4-13 7-14 12-15 11-9 13-8 13-5 9-2z"/>
</svg>
